<?xml version="1.0" encoding="UTF-8"?>
<svg id="Layer_1" data-name="Layer 1" xmlns="http://www.w3.org/2000/svg" xmlns:xlink="http://www.w3.org/1999/xlink" viewBox="0 0 459 459">
  <defs>
    <style>
      .cls-1 {
        fill: url(#linear-gradient-4);
      }

      .cls-2 {
        fill: url(#linear-gradient-3);
      }

      .cls-3 {
        fill: url(#linear-gradient-2);
      }

      .cls-4 {
        fill: url(#linear-gradient);
      }

      .cls-5 {
        fill: #939598;
      }

      .cls-6 {
        fill: #00acff;
        font-family: OpenSans-ExtraboldItalic, 'Open Sans';
        font-size: 36px;
        font-style: italic;
        font-weight: 700;
      }
    </style>
    <linearGradient id="linear-gradient" x1="175.48" y1="132.42" x2="292.26" y2="166.86" gradientUnits="userSpaceOnUse">
      <stop offset="0" stop-color="#4cbea0"/>
      <stop offset=".5" stop-color="#0099d8"/>
      <stop offset="1" stop-color="#8d54a2"/>
    </linearGradient>
    <linearGradient id="linear-gradient-2" x1="164.44" y1="169.42" x2="281.43" y2="203.92" gradientUnits="userSpaceOnUse">
      <stop offset="0" stop-color="#4cbea0"/>
      <stop offset=".54" stop-color="#0099d8"/>
      <stop offset="1" stop-color="#8d54a2"/>
    </linearGradient>
    <linearGradient id="linear-gradient-3" x1="199.33" y1="148.74" x2="275.84" y2="148.74" gradientUnits="userSpaceOnUse">
      <stop offset="0" stop-color="#4dbca3"/>
      <stop offset="1" stop-color="#00acff"/>
    </linearGradient>
    <linearGradient id="linear-gradient-4" x1="199.33" y1="196" x2="275.84" y2="196" xlink:href="#linear-gradient-3"/>
  </defs>
  <text class="cls-6" transform="translate(146.08 304.6)"><tspan x="0" y="0">ELECTION</tspan><tspan x="43.09" y="34">2026</tspan></text>
  <g>
    <g>
      <g>
        <polygon class="cls-4" points="262.36 168.18 262.36 129.29 241.06 153.92 230.41 129.29 220.02 153.31 199.24 129.29 199.24 168.18 262.36 168.18"/>
        <path class="cls-3" d="M262.35,168.18c0,17.42-14.13,31.55-31.55,31.55s-31.56-14.13-31.56-31.55h-24.08c0,30.72,24.91,55.63,55.64,55.63s55.64-24.91,55.64-55.63h-24.08Z"/>
      </g>
      <g>
        <path class="cls-5" d="M146.62,241.67h10.49v2.11h-7.97v6.47h7.37v2.08h-7.37v8.81h-2.51v-19.47Z"/>
        <path class="cls-5" d="M163.2,241.67v11.52c0,4.36,1.94,6.21,4.54,6.21,2.89,0,4.74-1.91,4.74-6.21v-11.52h2.54v11.35c0,5.98-3.15,8.43-7.37,8.43-3.99,0-6.99-2.28-6.99-8.32v-11.47h2.54Z"/>
        <path class="cls-5" d="M179.37,241.67h2.51v17.36h8.32v2.11h-10.83v-19.47Z"/>
        <path class="cls-5" d="M193.01,241.67h2.51v17.36h8.32v2.11h-10.83v-19.47Z"/>
        <path class="cls-5" d="M223.05,252.59c-.14-2.72-.32-5.98-.29-8.41h-.09c-.66,2.28-1.47,4.71-2.46,7.39l-3.44,9.45h-1.91l-3.15-9.27c-.92-2.74-1.7-5.26-2.25-7.57h-.06c-.06,2.43-.2,5.69-.38,8.61l-.52,8.35h-2.4l1.36-19.47h3.21l3.32,9.42c.81,2.4,1.47,4.53,1.96,6.56h.09c.49-1.96,1.18-4.1,2.05-6.56l3.47-9.42h3.21l1.21,19.47h-2.46l-.49-8.55Z"/>
        <path class="cls-5" d="M232.72,255.02l-2.02,6.12h-2.6l6.62-19.47h3.03l6.64,19.47h-2.68l-2.08-6.12h-6.9ZM232.23,238.9c0-.81.64-1.44,1.44-1.44s1.39.64,1.39,1.44-.55,1.47-1.41,1.47-1.42-.67-1.42-1.47ZM239.11,253.05l-1.91-5.6c-.43-1.27-.72-2.43-1.01-3.55h-.06c-.29,1.16-.61,2.34-.98,3.52l-1.91,5.63h5.86ZM237.6,238.9c0-.81.61-1.44,1.42-1.44s1.39.64,1.39,1.44-.55,1.47-1.39,1.47-1.42-.67-1.42-1.47Z"/>
        <path class="cls-5" d="M247.25,241.67h2.51v9.39h.09c.52-.75,1.04-1.44,1.53-2.08l5.95-7.31h3.12l-7.05,8.26,7.6,11.21h-2.97l-6.41-9.56-1.85,2.14v7.42h-2.51v-19.47Z"/>
        <path class="cls-5" d="M267.21,243.81h-5.92v-2.14h14.41v2.14h-5.95v17.33h-2.54v-17.33Z"/>
        <path class="cls-5" d="M280.38,241.67v19.47h-2.51v-19.47h2.51Z"/>
        <path class="cls-5" d="M299.59,260.27c-1.13.41-3.35,1.07-5.98,1.07-2.95,0-5.37-.75-7.28-2.57-1.67-1.62-2.71-4.22-2.71-7.25.03-5.8,4.02-10.05,10.54-10.05,2.25,0,4.02.49,4.85.9l-.61,2.05c-1.04-.46-2.34-.84-4.3-.84-4.74,0-7.83,2.95-7.83,7.83s2.98,7.86,7.51,7.86c1.65,0,2.77-.23,3.35-.52v-5.81h-3.96v-2.02h6.41v9.36Z"/>
        <path class="cls-5" d="M313.51,252.01h-7.57v7.02h8.43v2.11h-10.95v-19.47h10.51v2.11h-8v6.15h7.57v2.08Z"/>
      </g>
    </g>
    <g>
      <polygon class="cls-2" points="262.36 168.18 262.36 129.29 241.06 153.92 230.41 129.29 220.02 153.31 199.24 129.29 199.24 168.18 262.36 168.18"/>
      <path class="cls-1" d="M262.35,168.18c0,17.42-14.13,31.55-31.55,31.55s-31.56-14.13-31.56-31.55h-24.08c0,30.72,24.91,55.63,55.64,55.63s55.64-24.91,55.64-55.63h-24.08Z"/>
    </g>
    <g>
      <path class="cls-5" d="M146.62,241.67h10.49v2.11h-7.97v6.47h7.37v2.08h-7.37v8.81h-2.51v-19.47Z"/>
      <path class="cls-5" d="M163.2,241.67v11.52c0,4.36,1.94,6.21,4.54,6.21,2.89,0,4.74-1.91,4.74-6.21v-11.52h2.54v11.35c0,5.98-3.15,8.43-7.37,8.43-3.99,0-6.99-2.28-6.99-8.32v-11.47h2.54Z"/>
      <path class="cls-5" d="M179.37,241.67h2.51v17.36h8.32v2.11h-10.83v-19.47Z"/>
      <path class="cls-5" d="M193.01,241.67h2.51v17.36h8.32v2.11h-10.83v-19.47Z"/>
      <path class="cls-5" d="M223.05,252.59c-.14-2.72-.32-5.98-.29-8.41h-.09c-.66,2.28-1.47,4.71-2.46,7.39l-3.44,9.45h-1.91l-3.15-9.27c-.92-2.74-1.7-5.26-2.25-7.57h-.06c-.06,2.43-.2,5.69-.38,8.61l-.52,8.35h-2.4l1.36-19.47h3.21l3.32,9.42c.81,2.4,1.47,4.53,1.96,6.56h.09c.49-1.96,1.18-4.1,2.05-6.56l3.47-9.42h3.21l1.21,19.47h-2.46l-.49-8.55Z"/>
      <path class="cls-5" d="M232.72,255.02l-2.02,6.12h-2.6l6.62-19.47h3.03l6.64,19.47h-2.68l-2.08-6.12h-6.9ZM232.23,238.9c0-.81.64-1.44,1.44-1.44s1.39.64,1.39,1.44-.55,1.47-1.41,1.47-1.42-.67-1.42-1.47ZM239.11,253.05l-1.91-5.6c-.43-1.27-.72-2.43-1.01-3.55h-.06c-.29,1.16-.61,2.34-.98,3.52l-1.91,5.63h5.86ZM237.6,238.9c0-.81.61-1.44,1.42-1.44s1.39.64,1.39,1.44-.55,1.47-1.39,1.47-1.42-.67-1.42-1.47Z"/>
      <path class="cls-5" d="M247.25,241.67h2.51v9.39h.09c.52-.75,1.04-1.44,1.53-2.08l5.95-7.31h3.12l-7.05,8.26,7.6,11.21h-2.97l-6.41-9.56-1.85,2.14v7.42h-2.51v-19.47Z"/>
      <path class="cls-5" d="M267.21,243.81h-5.92v-2.14h14.41v2.14h-5.95v17.33h-2.54v-17.33Z"/>
      <path class="cls-5" d="M280.38,241.67v19.47h-2.51v-19.47h2.51Z"/>
      <path class="cls-5" d="M299.59,260.27c-1.13.41-3.35,1.07-5.98,1.07-2.95,0-5.37-.75-7.28-2.57-1.67-1.62-2.71-4.22-2.71-7.25.03-5.8,4.02-10.05,10.54-10.05,2.25,0,4.02.49,4.85.9l-.61,2.05c-1.04-.46-2.34-.84-4.3-.84-4.74,0-7.83,2.95-7.83,7.83s2.98,7.86,7.51,7.86c1.65,0,2.77-.23,3.35-.52v-5.81h-3.96v-2.02h6.41v9.36Z"/>
      <path class="cls-5" d="M313.51,252.01h-7.57v7.02h8.43v2.11h-10.95v-19.47h10.51v2.11h-8v6.15h7.57v2.08Z"/>
    </g>
  </g>
</svg>